<svg width="22" height="22" viewBox="0 0 22 22" fill="none" xmlns="http://www.w3.org/2000/svg">
<path d="M14.1492 13.7987C14.0561 13.7954 13.9682 13.7552 13.9047 13.687C13.8412 13.6189 13.8073 13.5283 13.8105 13.4352L13.991 8.3211L7.06697 14.7721C6.99875 14.8357 6.90808 14.8695 6.81489 14.8662C6.72171 14.8629 6.63366 14.8228 6.5701 14.7545C6.50654 14.6863 6.47268 14.5957 6.47598 14.5025C6.47927 14.4093 6.51945 14.3212 6.58767 14.2577L13.5117 7.80666L8.39761 7.62539C8.30674 7.61896 8.22192 7.57751 8.16101 7.50978C8.1001 7.44205 8.06786 7.35332 8.07108 7.26228C8.0743 7.17124 8.11273 7.08501 8.17827 7.02175C8.24381 6.95849 8.33135 6.92314 8.42244 6.92314L14.3849 7.134C14.478 7.13735 14.566 7.17752 14.6295 7.24568C14.693 7.31384 14.7269 7.40443 14.7236 7.49754L14.5128 13.46C14.5094 13.5531 14.4693 13.6411 14.4011 13.7046C14.3329 13.7681 14.2424 13.802 14.1492 13.7987Z" fill="white"/>
</svg>
